-39.59 -85.43 1.35 6 3.00 ROI1
-49.71 -60.80 23.21 1 3.00 ROI2
13.32 -64.37 24.03 1 3.00 ROI3
-36.62 -13.94 -2.31 4 3.00 ROI4
-6.76 45.74 7.82 1 3.00 ROI5
9.06 -35.94 47.12 7 3.00 ROI6
55.20 -47.49 41.91 2 3.00 ROI7
-40.66 -21.34 54.32 7 3.00 ROI8
-19.25 -62.07 -26.12 5 3.00 ROI9
43.32 -55.19 -32.25 5 3.00 ROI10
-58.91 -30.21 -2.40 1 3.00 ROI11
27.66 58.25 -1.62 2 3.00 ROI12
2.76 12.41 49.42 4 3.00 ROI13
53.80 -55.38 23.53 1 3.00 ROI14
13.49 12.26 -6.97 3 3.00 ROI15
-49.08 -65.36 -4.31 6 3.00 ROI16
46.01 9.12 32.14 2 3.00 ROI17
11.65 -20.01 9.47 5 3.00 ROI18
-9.89 -67.38 22.41 1 3.00 ROI19
-32.65 19.70 2.04 4 3.00 ROI20
-8.85 -38.01 69.28 7 3.00 ROI21
6.70 42.59 6.08 1 3.00 ROI22
-42.15 41.19 13.28 2 3.00 ROI23
-58.10 -26.92 16.01 4 3.00 ROI24
44.49 40.68 14.48 2 3.00 ROI25
43.23 -73.60 -10.94 6 3.00 ROI26
-30.51 -5.10 -32.59 3 3.00 ROI27
30.36 -33.68 63.45 7 3.00 ROI28
1.62 -16.52 34.79 1 3.00 ROI29
2.91 -28.01 -35.95 5 3.00 ROI30
29.68 -54.62 59.72 7 3.00 ROI31
43.54 9.92 -36.21 3 3.00 ROI32
-56.54 -43.31 26.48 4 3.00 ROI33
-45.61 8.00 31.68 2 3.00 ROI34
41.04 -4.71 10.82 4 3.00 ROI35
-40.12 -52.60 -33.24 5 3.00 ROI36
-13.38 -32.32 0.83 5 3.00 ROI37
42.40 23.82 37.62 2 3.00 ROI38
62.92 -42.96 -7.79 1 3.00 ROI39
1.62 33.26 24.29 1 3.00 ROI40
30.08 -39.27 -31.63 5 3.00 ROI41
-28.30 50.67 -11.61 2 3.00 ROI42
-38.92 5.73 -39.37 3 3.00 ROI43
13.55 -94.44 2.17 6 3.00 ROI44
-8.17 -17.88 10.57 5 3.00 ROI45
1.90 -38.22 32.19 1 3.00 ROI46
-13.79 12.60 -2.89 4 3.00 ROI47
18.47 -34.56 -1.79 5 3.00 ROI48
61.91 -21.05 -15.64 1 3.00 ROI49
-28.24 -6.31 58.02 7 3.00 ROI50
-0.07 38.86 -12.19 1 3.00 ROI51
-7.29 -45.37 -39.48 5 3.00 ROI52
44.58 29.22 -9.48 3 3.00 ROI53
-5.44 -87.24 24.99 6 3.00 ROI54
0.28 16.32 32.34 4 3.00 ROI55
-51.87 -50.20 42.13 2 3.00 ROI56
-28.43 31.07 -15.26 3 3.00 ROI57
1.51 -52.75 14.84 1 3.00 ROI58
36.71 17.25 3.58 4 3.00 ROI59
43.26 -19.89 53.66 7 3.00 ROI60
-39.11 20.31 42.20 1 3.00 ROI61
34.00 -31.41 -16.39 3 3.00 ROI62
-43.95 -52.73 -18.61 6 3.00 ROI63
28.76 -0.27 56.84 7 3.00 ROI64
12.27 -44.80 67.65 7 3.00 ROI65
61.43 -17.39 12.22 4 3.00 ROI66
-27.82 1.11 3.18 4 3.00 ROI67
1.60 -20.75 -7.60 5 3.00 ROI68
60.01 -44.49 10.78 4 3.00 ROI69
-11.30 -70.39 5.89 6 3.00 ROI70
29.59 24.55 -15.05 3 3.00 ROI71
-56.36 -15.05 -15.30 1 3.00 ROI72
-43.01 0.84 47.59 2 3.00 ROI73
-44.01 33.00 -8.11 1 3.00 ROI74
31.74 54.75 14.93 2 3.00 ROI75
-7.90 -33.14 45.51 7 3.00 ROI76
17.17 -80.07 -28.74 5 3.00 ROI77
-40.57 12.90 -28.22 3 3.00 ROI78
0.01 -0.29 42.17 4 3.00 ROI79
-36.71 -71.02 -31.62 5 3.00 ROI80
13.52 -77.39 38.91 6 3.00 ROI81
-42.92 -67.01 40.68 1 3.00 ROI82
47.76 7.94 -9.29 4 3.00 ROI83
-12.40 5.42 13.95 4 3.00 ROI84
46.90 -73.58 15.52 6 3.00 ROI85
9.08 -43.88 -37.14 5 3.00 ROI86
37.84 -12.76 -25.96 3 3.00 ROI87
-57.27 -8.55 25.65 4 3.00 ROI88
8.09 -74.01 6.52 6 3.00 ROI89
-17.04 -16.07 69.99 7 3.00 ROI90
0.33 51.58 26.50 1 3.00 ROI91
-18.65 -7.39 -15.87 3 3.00 ROI92
40.64 -43.19 48.22 7 3.00 ROI93
14.24 -0.52 17.52 5 3.00 ROI94
-26.05 11.68 56.24 1 3.00 ROI95
-28.78 -35.85 62.36 7 3.00 ROI96
-33.58 -81.26 26.25 6 3.00 ROI97
60.12 -1.33 25.04 4 3.00 ROI98
-57.97 -48.27 -8.14 1 3.00 ROI99
48.01 -52.74 -16.66 6 3.00 ROI100
-51.00 -3.57 -28.76 3 3.00 ROI101
35.85 -86.80 9.64 6 3.00 ROI102
-28.36 -39.96 -30.71 5 3.00 ROI103
-9.24 62.04 14.17 1 3.00 ROI104
18.19 -55.49 3.15 6 3.00 ROI105
28.58 34.64 42.04 1 3.00 ROI106
55.05 -28.80 0.13 4 3.00 ROI107
-6.89 -93.43 1.12 6 3.00 ROI108
1.35 55.87 -7.18 1 3.00 ROI109
30.92 5.82 -18.99 3 3.00 ROI110
2.11 -23.56 68.53 7 3.00 ROI111
-28.86 12.07 -16.63 3 3.00 ROI112
42.88 49.58 -4.43 2 3.00 ROI113
-25.80 -74.11 41.14 7 3.00 ROI114
44.40 0.88 50.03 2 3.00 ROI115
-55.86 -28.73 36.62 7 3.00 ROI116
-56.80 -48.18 8.96 4 3.00 ROI117
21.06 -59.34 -25.21 5 3.00 ROI118
55.76 3.84 5.81 4 3.00 ROI119
-17.30 -81.35 -30.88 5 3.00 ROI120
-39.71 -12.94 13.31 4 3.00 ROI121
-27.64 -37.95 -11.45 3 3.00 ROI122
0.39 -15.11 51.78 7 3.00 ROI123
28.30 43.79 -13.52 2 3.00 ROI124
-30.56 38.01 33.77 2 3.00 ROI125
35.71 -73.03 -30.55 5 3.00 ROI126
31.02 18.03 52.68 1 3.00 ROI127
61.18 -31.38 26.57 4 3.00 ROI128
-44.96 -0.70 -14.61 3 3.00 ROI129
0.71 -3.44 -8.73 3 3.00 ROI130
-25.52 -92.86 12.03 6 3.00 ROI131
29.91 -67.50 47.30 7 3.00 ROI132
-9.09 46.41 40.56 1 3.00 ROI133
24.56 -13.52 67.04 7 3.00 ROI134
15.27 14.60 7.03 4 3.00 ROI135
-13.98 -66.27 55.86 7 3.00 ROI136
40.68 -11.28 -3.86 4 3.00 ROI137
22.47 -69.62 -11.26 6 3.00 ROI138
10.74 62.96 9.95 1 3.00 ROI139
55.10 -3.64 -25.37 3 3.00 ROI140
-49.22 22.86 9.32 1 3.00 ROI141
17.82 -89.52 22.73 6 3.00 ROI142
53.45 -61.75 1.00 6 3.00 ROI143
52.07 28.02 4.90 4 3.00 ROI144
-31.88 -21.09 -18.78 3 3.00 ROI145
-55.97 -10.90 5.57 4 3.00 ROI146
-7.61 -74.76 41.07 6 3.00 ROI147
1.73 -4.45 5.30 5 3.00 ROI148
-0.17 31.10 45.47 1 3.00 ROI149
-46.12 -72.13 12.06 6 3.00 ROI150
-43.97 26.48 26.62 2 3.00 ROI151
1.66 -56.93 -12.75 5 3.00 ROI152
58.38 -7.81 -7.82 3 3.00 ROI153
-51.25 -14.10 40.35 4 3.00 ROI154
21.34 -11.89 -16.41 3 3.00 ROI155
-33.90 -53.78 49.50 7 3.00 ROI156
54.17 -11.85 39.29 4 3.00 ROI157
-21.13 -91.83 -12.11 6 3.00 ROI158
-35.77 -78.10 -14.89 6 3.00 ROI159
0.06 20.43 -8.01 1 3.00 ROI160
10.58 1.26 65.94 7 3.00 ROI161
-9.24 -44.04 -24.07 5 3.00 ROI162
10.32 -63.52 56.19 7 3.00 ROI163
51.93 20.99 21.11 2 3.00 ROI164
-54.09 7.22 18.20 4 3.00 ROI165
44.92 -65.45 39.31 1 3.00 ROI166
-25.34 51.96 22.88 2 3.00 ROI167
32.93 44.62 28.12 2 3.00 ROI168
-40.87 48.73 -3.43 2 3.00 ROI169
33.27 -78.11 31.11 6 3.00 ROI170
-42.49 -37.99 47.84 7 3.00 ROI171
28.10 -49.10 -12.99 6 3.00 ROI172
-8.57 19.86 60.45 1 3.00 ROI173
-0.66 -55.09 38.30 1 3.00 ROI174
30.81 -87.52 -10.86 6 3.00 ROI175
1.10 -63.25 -33.41 5 3.00 ROI176
-14.31 -74.22 -10.13 6 3.00 ROI177
27.20 0.85 -0.14 4 3.00 ROI178
-13.28 -52.93 -0.66 6 3.00 ROI179
55.96 -29.56 43.94 7 3.00 ROI180
45.71 13.35 -22.68 3 3.00 ROI181
-8.14 0.49 65.86 7 3.00 ROI182
-27.75 56.95 4.68 2 3.00 ROI183
-46.69 5.04 2.83 4 3.00 ROI184
44.51 -24.78 16.12 4 3.00 ROI185
12.14 43.12 45.42 1 3.00 ROI186
13.50 21.67 59.79 1 3.00 ROI187
-18.62 -52.64 65.19 7 3.00 ROI188
-27.64 -58.29 -13.61 6 3.00 ROI189
15.97 -34.46 -21.41 5 3.00 ROI190
-21.33 29.99 47.31 1 3.00 ROI191
-0.72 -77.83 -23.17 5 3.00 ROI192
15.04 56.28 29.36 1 3.00 ROI193
1.03 -30.75 -17.50 5 3.00 ROI194
8.98 -86.89 -12.28 6 3.00 ROI195
-46.40 13.78 -11.24 3 3.00 ROI196
-3.91 -53.09 57.43 7 3.00 ROI197
30.76 -1.43 -36.15 3 3.00 ROI198
-15.00 -30.83 -18.35 5 3.00 ROI199
-41.94 -31.52 15.23 4 3.00 ROI200
